<svg xmlns="http://www.w3.org/2000/svg" width="1" height="1" fill="currentColor" viewBox="0 0 1 1">
  <path d="M.413.042A.243.243 0 0 1 .478.016a.125.125 0 0 1 .044 0c.017.003.033.01.065.026l.217.104c.032.016.048.023.06.035.012.01.021.021.029.035a.27.27 0 0 1 .02.066l.053.235a.264.264 0 0 1 .011.069c0 .015-.004.03-.01.044a.275.275 0 0 1-.04.057l-.15.188C.755.903.744.917.73.927a.125.125 0 0 1-.04.019C.674.95.656.95.62.95H.38C.343.95.325.95.31.946a.125.125 0 0 1-.04-.02.222.222 0 0 1-.047-.049l-.15-.19A.214.214 0 0 1 .033.63a.125.125 0 0 1-.01-.044c0-.017.003-.034.011-.069L.088.282C.096.248.099.23.108.216A.125.125 0 0 1 .134.18.28.28 0 0 1 .195.146L.414.042Z"/>
</svg>
