<svg xmlns="http://www.w3.org/2000/svg" width="24" height="24" fill="none" viewBox="0 0 24 24">
  <path fill="#2688EB" fill-rule="evenodd" d="m13.519.621 6.43 3.097a3.5 3.5 0 0 1 1.894 2.375l1.588 6.958a3.5 3.5 0 0 1-.676 2.961l-4.45 5.58a3.5 3.5 0 0 1-2.736 1.319H8.43a3.5 3.5 0 0 1-2.736-1.318l-4.45-5.58a3.5 3.5 0 0 1-.676-2.962l1.588-6.958A3.5 3.5 0 0 1 4.05 3.718L10.48.621a3.5 3.5 0 0 1 3.038 0Zm-.434.901a2.5 2.5 0 0 0-2.17 0L4.485 4.62a2.5 2.5 0 0 0-1.353 1.696l-1.588 6.959a2.5 2.5 0 0 0 .482 2.115l4.45 5.58a2.5 2.5 0 0 0 1.955.942h7.138a2.5 2.5 0 0 0 1.954-.942l4.45-5.58a2.5 2.5 0 0 0 .483-2.115l-1.588-6.959a2.5 2.5 0 0 0-1.353-1.696l-6.43-3.097Z" clip-rule="evenodd"/>
</svg>
