<svg display="none">
    <defs>
        <g id="img-stories-stroke">
            <path xmlns="http://www.w3.org/2000/svg" fill="#2688EB" fill-rule="evenodd"
                d="m13.519.621 6.43 3.097a3.5 3.5 0 0 1 1.894 2.375l1.588 6.958a3.5 3.5 0 0 1-.676 2.961l-4.45 5.58a3.5 3.5 0 0 1-2.736 1.319H8.43a3.5 3.5 0 0 1-2.736-1.318l-4.45-5.58a3.5 3.5 0 0 1-.676-2.962l1.588-6.958A3.5 3.5 0 0 1 4.05 3.718L10.48.621a3.5 3.5 0 0 1 3.038 0Zm-.434.901a2.5 2.5 0 0 0-2.17 0L4.485 4.62a2.5 2.5 0 0 0-1.353 1.696l-1.588 6.959a2.5 2.5 0 0 0 .482 2.115l4.45 5.58a2.5 2.5 0 0 0 1.955.942h7.138a2.5 2.5 0 0 0 1.954-.942l4.45-5.58a2.5 2.5 0 0 0 .483-2.115l-1.588-6.959a2.5 2.5 0 0 0-1.353-1.696l-6.43-3.097Z"
                clip-rule="evenodd" />
        </g>
        <g id="img-stroke">
            <path xmlns="http://www.w3.org/2000/svg" fill="url(#a)" fill-rule="evenodd"
                d="m12.736.726 5.215 2.511a4 4 0 0 1 2.164 2.714l1.288 5.643a4 4 0 0 1-.773 3.384l-3.609 4.526a4 4 0 0 1-3.127 1.506H8.106a4 4 0 0 1-3.127-1.506l-3.61-4.526a4 4 0 0 1-.772-3.384l1.288-5.643A4 4 0 0 1 4.05 3.237L9.264.726a4 4 0 0 1 3.472 0Zm-.434.9a3 3 0 0 0-2.604 0L4.483 4.139A3 3 0 0 0 2.86 6.174l-1.288 5.643a3 3 0 0 0 .58 2.538L5.76 18.88a3 3 0 0 0 2.346 1.13h5.788a3 3 0 0 0 2.346-1.13l3.609-4.525a3 3 0 0 0 .579-2.538L19.14 6.174a3 3 0 0 0-1.623-2.036l-5.215-2.511Z"
                clip-rule="evenodd" />
            <defs xmlns="http://www.w3.org/2000/svg">
                <linearGradient id="a" x1=".497" x2="21.174" y1=".33" y2="21.333" gradientUnits="userSpaceOnUse">
                    <stop stop-color="#2EE6A8" />
                    <stop offset=".344" stop-color="#39F" />
                    <stop offset=".693" stop-color="#93F" />
                    <stop offset="1" stop-color="#F39" />
                </linearGradient>
            </defs>
        </g>
    </defs>
</svg>